# xmcd
#
# Track frame offsets:
#	150
#	19542
#	38635
#	59890
#	78197
#	97325
#	115725
#	135472
#	152775
#
# Disc length: 2283 seconds
#
# Revision: 1
# Processed by: cddbd v1.5.1PL0 Copyright (c) Steve Scherf et al.
# Submitted via: CDex 1.50Beta5
#
DISCID=6f08e909
DTITLE=財津和夫 - 「もうひとつ」の愛
DYEAR=1992
DGENRE=
TTITLE0=「もうひとつ」の愛
TTITLE1=ミス・ベスト・ワン
TTITLE2=君の部屋のソファ
TTITLE3=「愛してる」
TTITLE4=急行の停まる街
TTITLE5=満月の夜の罠
TTITLE6=僕の気持ち、君の気持ち
TTITLE7=君のそこが
TTITLE8=時が経てば
EXTD=
EXTT0=
EXTT1=
EXTT2=
EXTT3=
EXTT4=
EXTT5=
EXTT6=
EXTT7=
EXTT8=
PLAYORDER=
